# xmcd
#
# Track frame offsets:
#	150
#	2825
#	20509
#	38851
#	55822
#	71202
#	95557
#	110406
#	126701
#	142949
#	158813
#	175994
#	193500
#	210205
#
# Disc length: 3097 seconds
#
# Revision: 0
# Processed by: cddbd v1.5.2PL0 Copyright (c) Steve Scherf et al.
# Submitted via: SynApp - FreeCDDB Version: 2.2
#
DISCID=c30c170e
DTITLE=03 - 1
DYEAR=2
DGENRE=k
TTITLE0=indiana gregg - Track 1
TTITLE1=indiana gregg - Track 2
TTITLE2=indiana gregg - Track 3
TTITLE3=04 - indiana gregg - Track 4
TTITLE4=05 - indiana gregg - Track 5
TTITLE5=06 - indiana gregg - Track 6
TTITLE6=07 - indiana gregg - Track 7
TTITLE7=08 - indiana gregg - Track 8
TTITLE8=09 - indiana gregg - Track 9
TTITLE9=10 - indiana gregg - Track 10
TTITLE10=11 - indiana gregg - Track 11
TTITLE11=12 - indiana gregg - Track 12
TTITLE12=13 - indiana gregg - Track 13
TTITLE13=14 - indiana gregg - Track 14
EXTD=
EXTT0=
EXTT1=
EXTT2=
EXTT3=
EXTT4=
EXTT5=
EXTT6=
EXTT7=
EXTT8=
EXTT9=
EXTT10=
EXTT11=
EXTT12=
EXTT13=
PLAYORDER=
